<?xml version="1.0" encoding="UTF-8"?>
<svg version="1.1" xmlns="http://www.w3.org/2000/svg" width="500" height="500">
<path d="M0 0 C2.88329634 0.71701759 5.72241727 1.54448971 8.56640625 2.40234375 C9.6970752 2.7051123 10.82774414 3.00788086 11.99267578 3.31982422 C26.27385151 7.49727985 35.50871817 16.81435157 45.6338253 27.16910362 C47.93336356 29.52026043 50.24566102 31.85819528 52.56147766 34.1933136 C57.4703673 39.14761992 62.36326083 44.11753546 67.25390625 49.08984375 C72.93615076 54.86674593 78.62490222 60.63692267 84.33078957 66.39048195 C86.60128708 68.68677761 88.85933772 70.99483754 91.11711121 73.30363464 C92.51587146 74.71693108 93.91519979 76.12966557 95.31518555 77.54174805 C95.93304428 78.18027206 96.55090302 78.81879608 97.18748474 79.47666931 C104.10797864 86.40045678 111.78429788 89.70161965 121.56640625 90.40234375 C135.62980295 89.70151003 145.22610927 78.22219833 154.34470367 68.83300972 C156.62368125 66.48840053 158.9167413 64.15841455 161.21405029 61.83177185 C167.73817081 55.2195875 174.23786089 48.58366591 180.72509766 41.93530273 C184.70910227 37.85435296 188.71054649 33.79115585 192.72258759 29.7377758 C194.23628303 28.20129059 195.74325705 26.65815022 197.24292755 25.1079731 C207.74874349 14.25034392 218.04600741 4.79787009 233.56640625 2.40234375 C234.69681335 2.18738251 235.82722046 1.97242126 236.99188232 1.75094604 C249.21746293 -0.42370073 263.67233131 -2.55013865 274.49013138 4.7549839 C282.36109628 10.74986031 288.95708732 18.15534653 295.47741699 25.54998779 C297.77067194 28.11199504 300.14056413 30.59526468 302.51847267 33.07851505 C321.61923072 53.02751187 339.09941055 73.2796929 338.5234375 102.58886719 C337.64723634 119.45573944 331.94481575 134.49965487 320.45263672 147.0246582 C317.19012604 150.60604002 313.96911754 154.21608491 310.78564453 157.86791992 C273.27544694 200.56555252 273.27544694 200.56555252 258.14453125 202.40234375 C249.61916169 202.89965067 241.6230087 201.02411213 233.56640625 198.40234375 C231.84019043 197.93948975 231.84019043 197.93948975 230.07910156 197.46728516 C215.60299135 193.48836014 206.91683018 185.27851377 196.66584778 174.7718792 C194.3703832 172.42019027 192.06177397 170.08213264 189.74938965 167.74708557 C184.01238615 161.94896143 178.29562108 156.13104439 172.58306885 150.30883789 C167.74375483 145.37711366 162.89453264 140.45558688 158.03071594 135.54802132 C155.76627257 133.2551023 153.51707085 130.94792913 151.26794434 128.63999939 C149.86626085 127.22333643 148.46383318 125.80740928 147.06054688 124.39233398 C146.44830765 123.7558342 145.83606842 123.11933441 145.20527649 122.46354675 C138.6134381 115.88377939 130.43173795 111.32338847 121.00390625 111.08984375 C104.37706912 111.29040873 94.8709583 123.96753171 84.01904869 134.9662323 C81.91443222 137.09778168 79.80521905 139.2246799 77.6945343 141.35021973 C71.69832603 147.38888446 65.70483656 153.43016065 59.7277832 159.48779297 C56.05742652 163.2069561 52.37713397 166.91603778 48.69037819 170.61894226 C47.29739915 172.02174636 45.90806383 173.4281794 44.52264977 174.8384552 C33.67727592 185.87413822 23.79942177 194.24867743 8.56640625 198.40234375 C7.92529907 198.60492798 7.28419189 198.80751221 6.62365723 199.01623535 C-6.36573597 203.10828068 -20.66431829 205.16610967 -33.43359375 199.40234375 C-44.4808726 192.63498081 -53.61164768 182.63518779 -62.49609375 173.33984375 C-63.08835503 172.72201271 -63.6806163 172.10418167 -64.29082489 171.46762848 C-68.32803515 167.23907714 -72.29963921 162.95536345 -76.21875 158.6171875 C-76.98173684 157.77340514 -76.98173684 157.77340514 -77.76013756 156.91257668 C-96.48436583 136.02139928 -103.72212774 116.5279305 -102.43359375 88.40234375 C-98.90696866 57.30980515 -63.35047044 25.31738863 -40.24658203 6.21679688 C-28.18093136 -3.32904459 -14.50027283 -2.94460005 0 0 Z " fill="#01BCAD" transform="translate(132.43359375,149.59765625)"/>
<path d="M0 0 C6.76982613 5.05102493 12.89690345 10.60597941 18.84619141 16.58740234 C20.0773317 17.81328568 20.0773317 17.81328568 21.33334351 19.06393433 C24.01109368 21.73296954 26.68156585 24.40914773 29.3515625 27.0859375 C31.22027889 28.95330535 33.08929199 30.82037632 34.95858765 32.68716431 C38.85701063 36.58196887 42.75124144 40.48092745 46.64306641 44.38232422 C51.14401814 48.89421773 55.65221198 53.39877904 60.16411459 57.8997196 C64.51598355 62.2414387 68.86223423 66.58873602 73.20609665 70.93846512 C75.05230111 72.78600671 76.90000056 74.63205562 78.7491951 76.47660446 C81.32023774 79.04259825 83.88483352 81.61486207 86.44775391 84.18896484 C87.21750549 84.95466797 87.98725708 85.72037109 88.78033447 86.50927734 C89.81884048 87.55624283 89.81884048 87.55624283 90.87832642 88.62435913 C91.48478312 89.23156988 92.09123981 89.83878063 92.71607399 90.46439171 C94 92 94 92 94 94 C92.70707031 94.09796875 91.41414063 94.1959375 90.08203125 94.296875 C73.47394444 95.67341265 55.97311317 98.31100562 44 111 C42.84030843 112.17750948 41.67730004 113.35175778 40.51171875 114.5234375 C39.88716797 115.1525 39.26261719 115.7815625 38.61914062 116.4296875 C37.98169922 117.07164062 37.34425781 117.71359375 36.6875 118.375 C36.06166016 119.00921875 35.43582031 119.6434375 34.79101562 120.296875 C31.64722268 123.45678996 28.46411747 126.50880596 25.0859375 129.41796875 C20.49213513 133.38343949 16.21612895 137.63709686 11.9375 141.9375 C11.17373047 142.69740234 10.40996094 143.45730469 9.62304688 144.24023438 C5.41243514 148.45804989 1.37967634 152.76783507 -2.51000977 157.28295898 C-7.24744799 162.74230734 -12.56913418 167.57601471 -18.0546875 172.265625 C-20.03550857 174.03165824 -21.85565869 175.89342815 -23.6875 177.8125 C-26.96239357 181.08739357 -29.27682619 182.82685022 -34.02734375 183.12890625 C-38.62931356 182.99517379 -41.3915278 182.04778342 -44.78125 178.91015625 C-45.4719458 178.27811279 -46.1626416 177.64606934 -46.87426758 176.99487305 C-47.57575928 176.33656494 -48.27725098 175.67825684 -49 175 C-49.66862061 174.38487549 -50.33724121 173.76975098 -51.02612305 173.13598633 C-53.09200365 171.22815397 -55.1421094 169.30477536 -57.1875 167.375 C-57.92145996 166.68277344 -58.65541992 165.99054688 -59.41162109 165.27734375 C-67.98385486 157.16117888 -76.53680574 149.02069699 -84.19921875 140.02734375 C-89.99079646 133.50710767 -96.32487287 127.46496947 -102.96484375 121.8203125 C-105.46244479 119.58637375 -107.78207384 117.20780156 -110.125 114.8125 C-112.82479086 112.06687936 -115.36219319 109.55464485 -118.625 107.5 C-119.40875 107.005 -120.1925 106.51 -121 106 C-121 105.34 -121 104.68 -121 104 C-121.69738281 103.7215625 -122.39476562 103.443125 -123.11328125 103.15625 C-125.07189407 102.37174473 -127.02754926 101.57982258 -128.98046875 100.78125 C-142.41144588 95.41540287 -154.6738763 94.51298784 -169 94 C-168.41526268 90.5075318 -167.22444271 88.84523407 -164.74702454 86.35261536 C-164.05067902 85.64492004 -163.3543335 84.93722473 -162.6368866 84.20808411 C-161.86766373 83.44179184 -161.09844086 82.67549957 -160.3059082 81.88598633 C-159.49919678 81.07080536 -158.69248535 80.25562439 -157.86132812 79.41574097 C-155.18231033 76.71326075 -152.49216706 74.02219084 -149.80078125 71.33203125 C-148.4028606 69.92880473 -147.00494323 68.52557485 -145.60749501 67.12187785 C-141.2046107 62.69974295 -136.79358102 58.28584796 -132.37768555 53.87670898 C-127.84920937 49.35483634 -123.33557738 44.81853095 -118.82906657 40.27477628 C-114.9432571 36.35804327 -111.04760517 32.45128328 -107.14436978 28.5519163 C-104.82093816 26.23053337 -102.50245476 23.9045874 -100.19130898 21.57096291 C-73.15274568 -5.70128712 -36.39280538 -23.56256896 0 0 Z " fill="#01BCAD" transform="translate(288,40)"/>
<path d="M0 0 C3.04063784 1.98229428 5.48184651 4.39894434 8 7 C8.58523438 7.58523438 9.17046875 8.17046875 9.7734375 8.7734375 C10.92839716 9.92839716 12.07812449 11.08861201 13.22265625 12.25390625 C15.06593574 14.06477643 16.97822799 15.75321354 18.9375 17.4375 C24.39842975 22.16046627 29.44741566 27.18411614 34.15625 32.65625 C38.37486435 37.502631 42.88494467 42.03164072 47.4375 46.5625 C48.24509766 47.37396484 49.05269531 48.18542969 49.88476562 49.02148438 C54.2223656 53.35209386 58.64071258 57.51316754 63.28735352 61.51000977 C65.36553459 63.31801248 67.32088211 65.22190719 69.25 67.1875 C69.87390625 67.82042969 70.4978125 68.45335937 71.140625 69.10546875 C72.42098268 70.41003487 73.68992388 71.72587182 74.94921875 73.05078125 C87.8238651 85.28782606 106.17470274 86.9687721 123 88 C121.61645281 91.10666792 120.01707604 93.23875912 117.62677002 95.64738464 C116.58018974 96.70892761 116.58018974 96.70892761 115.51246643 97.79191589 C114.74683884 98.55820816 113.98121124 99.32450043 113.19238281 100.11401367 C112.38552536 100.92919464 111.57866791 101.74437561 110.74736023 102.58425903 C108.07142692 105.28433171 105.38785535 107.97664461 102.703125 110.66796875 C101.30649661 112.07129792 99.90986939 113.47462828 98.51340652 114.87812215 C94.11475322 119.29825024 89.7100468 123.71228672 85.30224609 128.12329102 C80.78256996 132.64658438 76.27613754 137.18277829 71.77571797 141.72522372 C67.89403977 145.64184985 64.00254378 149.5485461 60.10369945 153.4480837 C57.78335961 155.76920927 55.4682632 158.09515575 53.16074371 160.42903709 C36.32474376 177.44185077 19.82423221 191.92108995 -5.36376953 192.24194336 C-29.78642036 192.30345668 -46.16222715 184.9473327 -63.51148987 167.77067566 C-64.25164841 167.0280397 -64.99180695 166.28540375 -65.75439453 165.52026367 C-66.56540115 164.71436798 -67.37640778 163.90847229 -68.21199036 163.07815552 C-70.85739134 160.44651462 -73.49544169 157.80765548 -76.1328125 155.16796875 C-77.97918207 153.32548997 -79.82577375 151.48323375 -81.6725769 149.64118958 C-85.52409659 145.79783762 -89.37109582 141.95000204 -93.21582031 138.09985352 C-97.6607036 133.64889667 -102.11476809 129.20727784 -106.57327378 124.76997012 C-110.87492409 120.48801992 -115.16823099 116.19780897 -119.45827866 111.90423012 C-121.28127326 110.08175002 -123.10664275 108.26164234 -124.93439102 106.44392967 C-127.47664072 103.91394485 -130.00925744 101.3746984 -132.53955078 98.83276367 C-133.29995163 98.08000656 -134.06035248 97.32724945 -134.84379578 96.55168152 C-135.52771896 95.86074402 -136.21164215 95.16980652 -136.91629028 94.45793152 C-137.51537264 93.8590169 -138.11445499 93.26010229 -138.73169136 92.64303875 C-140 91 -140 91 -140 88 C-138.741875 87.97421875 -137.48375 87.9484375 -136.1875 87.921875 C-121.85273068 87.49968466 -108.5432138 86.11245251 -95.8203125 78.953125 C-94 78 -94 78 -92 78 C-92 77.34 -92 76.68 -92 76 C-90.48828125 74.73046875 -90.48828125 74.73046875 -88.3125 73.1875 C-83.98687734 69.93304888 -80.21897563 66.35266923 -76.4375 62.5 C-73.00673082 59.0053065 -69.60980176 55.54996495 -65.875 52.375 C-59.33685793 46.80444766 -53.26739353 40.6553282 -47.65625 34.15625 C-43.96460917 29.9026957 -40.05532463 25.90722246 -36.0625 21.9375 C-35.39798828 21.26912109 -34.73347656 20.60074219 -34.04882812 19.91210938 C-29.5307104 15.40275619 -24.83487036 11.16523181 -20 7 C-18.79923828 5.92105469 -18.79923828 5.92105469 -17.57421875 4.8203125 C-16.95160156 4.26085937 -16.32898438 3.70140625 -15.6875 3.125 C-15.05199219 2.55007813 -14.41648437 1.97515625 -13.76171875 1.3828125 C-9.57093186 -1.90662998 -4.86569484 -1.40828241 0 0 Z " fill="#01BCAC" transform="translate(259,278)"/>
<path d="M0 0 C3.28429949 0.60820361 6.38285187 1.42650809 9.5625 2.4375 C18.15064382 4.85069744 27.14142642 5.27491176 36 6 C34.5450489 9.34784108 32.70194509 11.54377373 30.12109375 14.109375 C29.36505859 14.86347656 28.60902344 15.61757813 27.83007812 16.39453125 C26.64575195 17.56048828 26.64575195 17.56048828 25.4375 18.75 C24.64408203 19.54277344 23.85066406 20.33554687 23.03320312 21.15234375 C17.14025522 27 17.14025522 27 16 27 C16 24.69 16 22.38 16 20 C16.61875 19.855625 17.2375 19.71125 17.875 19.5625 C20.03258322 19.06847775 20.03258322 19.06847775 22 18 C22 16.68 22 15.36 22 14 C22.522688 11.03810132 22.81036236 10.18963764 25 8 C23.865625 7.82984375 22.73125 7.6596875 21.5625 7.484375 C6.70071538 5.13448396 6.70071538 5.13448396 0 1 C0 0.67 0 0.34 0 0 Z " fill="#08AFA1" transform="translate(346,360)"/>
<path d="M0 0 C0.89203125 0.91910156 1.7840625 1.83820313 2.703125 2.78515625 C3.37859375 3.49542969 4.0540625 4.20570313 4.75 4.9375 C4.09 5.5975 3.43 6.2575 2.75 6.9375 C1.986875 6.31875 1.22375 5.7 0.4375 5.0625 C-2.24625809 2.88152948 -2.24625809 2.88152948 -5.25 0.9375 C-5.9375 -1.6875 -5.9375 -1.6875 -6.25 -4.0625 C-10.90951757 -3.99299508 -15.56819065 -3.90473694 -20.22705078 -3.80004883 C-21.80768358 -3.76705863 -23.38842687 -3.73894852 -24.96923828 -3.71606445 C-36.51152864 -3.54449973 -45.85032182 -2.52233104 -56.25 2.9375 C-56.91 2.9375 -57.57 2.9375 -58.25 2.9375 C-58.91 4.2575 -59.57 5.5775 -60.25 6.9375 C-61.57 6.2775 -62.89 5.6175 -64.25 4.9375 C-52.43579235 -3.06309209 -40.82987723 -5.66003127 -26.81713867 -5.84643555 C-24.65786477 -5.87539749 -22.50042533 -5.93067091 -20.34179688 -5.99023438 C-6.08037417 -6.32038894 -6.08037417 -6.32038894 0 0 Z " fill="#21AEA2" transform="translate(407.25,157.0625)"/>
<path d="M0 0 C4.90687153 3.9939652 9.44270563 8.3040953 13.9375 12.75 C14.52942139 13.32903076 15.12134277 13.90806152 15.73120117 14.50463867 C17.19409125 15.96410929 18.60214515 17.47812494 20 19 C20 19.66 20 20.32 20 21 C18.70707031 21.10957031 17.41414063 21.21914062 16.08203125 21.33203125 C6.15298269 22.22094299 -3.36054495 23.36146303 -13 26 C-11.55445128 23.10890256 -9.83310981 22.98693247 -6.8125 21.9375 C0.07244967 19.70879788 6.80104355 19.21298688 14 19 C13.67 18.01 13.34 17.02 13 16 C12.175 15.690625 11.35 15.38125 10.5 15.0625 C9.675 14.711875 8.85 14.36125 8 14 C7.64587656 12.67203709 7.31478446 11.33783393 7 10 C4.75900598 7.98885152 2.69395269 6.34697635 0 5 C0 3.35 0 1.7 0 0 Z " fill="#19988B" transform="translate(362,113)"/>
<path d="M0 0 C0 3 0 3 -1.8125 4.875 C-2.8953125 5.926875 -2.8953125 5.926875 -4 7 C-4.515625 7.9075 -5.03125 8.815 -5.5625 9.75 C-6.036875 10.4925 -6.51125 11.235 -7 12 C-7.99 12 -8.98 12 -10 12 C-10 12.66 -10 13.32 -10 14 C-10.66 14 -11.32 14 -12 14 C-12 15.65 -12 17.3 -12 19 C-12.804375 19.12375 -12.804375 19.12375 -13.625 19.25 C-21.32940149 21.68296889 -26.55904964 28.36549804 -32 34 C-32.66 33.67 -33.32 33.34 -34 33 C-31.01669981 29.99168504 -28.02990259 26.98689606 -25.04003906 23.98510742 C-24.02673848 22.96682708 -23.01434288 21.94764526 -22.00292969 20.92749023 C-16.68269245 15.56247872 -11.35219307 10.2645753 -5.58984375 5.3671875 C-3.62342114 3.67616069 -1.79556567 1.87038091 0 0 Z " fill="#0F6158" transform="translate(243,281)"/>
<path d="M0 0 C1.32 0.66 2.64 1.32 4 2 C-5.24 11.24 -14.48 20.48 -24 30 C-24.33 29.01 -24.66 28.02 -25 27 C-24.01 25.515 -24.01 25.515 -23 24 C-22.34 24.33 -21.68 24.66 -21 25 C-20.731875 24.443125 -20.46375 23.88625 -20.1875 23.3125 C-18.89877353 20.80287477 -17.47073522 18.40665764 -16 16 C-15.01 16.33 -14.02 16.66 -13 17 C-12.34 15.68 -11.68 14.36 -11 13 C-10.34 13 -9.68 13 -9 13 C-8.67 11.35 -8.34 9.7 -8 8 C-7.01 8.33 -6.02 8.66 -5 9 C-4.731875 8.443125 -4.46375 7.88625 -4.1875 7.3125 C-2.89877353 4.80287477 -1.47073522 2.40665764 0 0 Z " fill="#157D73" transform="translate(197,298)"/>
<path d="M0 0 C0 3.11227195 -0.45627049 5.94152152 -1 9 C-1.76828125 8.92523438 -2.5365625 8.85046875 -3.328125 8.7734375 C-6.04485272 8.70843388 -6.04485272 8.70843388 -7.484375 10.5390625 C-7.90203125 11.22742188 -8.3196875 11.91578125 -8.75 12.625 C-11.56449822 16.73460152 -14.53790232 18.95304482 -18.7421875 21.546875 C-22.12265285 23.72253782 -25.00580511 26.32433648 -28 29 C-28.66 28.67 -29.32 28.34 -30 28 C-29.2265625 27.29875 -28.453125 26.5975 -27.65625 25.875 C-22.27447507 20.97838186 -16.98625402 16.04041726 -11.8828125 10.8515625 C-9.24733357 8.25982596 -6.47048884 5.84922351 -3.6640625 3.4453125 C-2.39833536 2.34597202 -1.1854566 1.1854566 0 0 Z " fill="#107166" transform="translate(199,325)"/>
<path d="M0 0 C0 3.10551666 -0.5393715 4.35261084 -2 7 C-2.66 7 -3.32 7 -4 7 C-4.66 8.32 -5.32 9.64 -6 11 C-6.66 11 -7.32 11 -8 11 C-8 12.32 -8 13.64 -8 15 C-8.66 15 -9.32 15 -10 15 C-10.99 17.475 -10.99 17.475 -12 20 C-15.96 20.495 -15.96 20.495 -20 21 C-15.76183463 15.93376232 -11.32591037 11.19961931 -6.625 6.5625 C-5.98433594 5.92634766 -5.34367188 5.29019531 -4.68359375 4.63476562 C-3.12469121 3.08749668 -1.56348584 1.54263508 0 0 Z " fill="#09BAAA" transform="translate(149,101)"/>
<path d="M0 0 C1.32 0 2.64 0 4 0 C4.495 2.97 4.495 2.97 5 6 C6.32 6 7.64 6 9 6 C9 6.99 9 7.98 9 9 C8.34 8.731875 7.68 8.46375 7 8.1875 C6.01 7.795625 5.02 7.40375 4 7 C2.824375 6.46375 1.64875 5.9275 0.4375 5.375 C-6.89088974 2.68378343 -14.39518776 3.0598325 -21.5625 6 C-22.74005859 6.556875 -22.74005859 6.556875 -23.94140625 7.125 C-26 8 -26 8 -29 8 C-29 7.01 -29 6.02 -29 5 C-19.45111577 1.65578724 -10.00725176 1.31926326 0 1 C0 0.67 0 0.34 0 0 Z " fill="#14A195" transform="translate(263,257)"/>
<path d="M0 0 C0.33 0.66 0.66 1.32 1 2 C0.67 2.99 0.34 3.98 0 5 C-0.99 5.33 -1.98 5.66 -3 6 C-3.33 7.65 -3.66 9.3 -4 11 C-4.66 11 -5.32 11 -6 11 C-6.66 12.65 -7.32 14.3 -8 16 C-8.99 16 -9.98 16 -11 16 C-11.33 16.66 -11.66 17.32 -12 18 C-14.90259811 19.3749149 -16.76138705 20 -20 20 C-13.4 13.4 -6.8 6.8 0 0 Z " fill="#0D9083" transform="translate(193,57)"/>
<path d="M0 0 C5.75 1.625 5.75 1.625 8 5 C10.05003955 6.19232613 10.05003955 6.19232613 12 7 C12 8.32 12 9.64 12 11 C15.04913228 12.01111093 15.04913228 12.01111093 18 11 C18.33 13.31 18.66 15.62 19 18 C19.99 18 20.98 18 22 18 C22.33 18.99 22.66 19.98 23 21 C20 21 20 21 17.82348633 19.17993164 C17.00130615 18.34840576 16.17912598 17.51687988 15.33203125 16.66015625 C14.43935547 15.76232422 13.54667969 14.86449219 12.62695312 13.93945312 C12.16554932 13.46773682 11.70414551 12.99602051 11.22875977 12.51000977 C9.81452734 11.06457207 8.38985265 9.63012723 6.96289062 8.19726562 C0 1.15358729 0 1.15358729 0 0 Z " fill="#13867A" transform="translate(66,315)"/>
<path d="M0 0 C5.76226265 0.04452588 11.52346809 0.11474334 17.28515625 0.20751953 C19.2401482 0.23553078 21.19524924 0.25684271 23.15039062 0.27099609 C43.98342367 0.43075862 43.98342367 0.43075862 54 5 C54 5.99 54 6.98 54 8 C53.34 8 52.68 8 52 8 C51.505 7.01 51.505 7.01 51 6 C48.98478238 5.30968636 48.98478238 5.30968636 46.625 4.875 C45.83351562 4.70742187 45.04203125 4.53984375 44.2265625 4.3671875 C41.88276945 3.91864274 41.88276945 3.91864274 39 4 C39 3.34 39 2.68 39 2 C25.8 2 12.6 2 -1 2 C-0.67 1.34 -0.34 0.68 0 0 Z " fill="#1EA497" transform="translate(99,151)"/>
<path d="M0 0 C2.62327181 0.9743581 4.81462784 1.85981052 7.05737305 3.5559082 C11.33164449 5.65350346 15.19761094 5.37247152 19.89453125 5.29296875 C20.84188644 5.28872391 21.78924164 5.28447906 22.76530457 5.28010559 C25.78132947 5.26335689 28.79667816 5.22571146 31.8125 5.1875 C33.86131845 5.17244825 35.91014741 5.1587607 37.95898438 5.14648438 C42.9729155 5.11346579 47.98634322 5.06170947 53 5 C50.17646565 6.58130321 48.02794265 7.27477974 44.80151367 7.42993164 C43.98353806 7.47239517 43.16556244 7.5148587 42.32279968 7.55860901 C41.00865837 7.60887489 41.00865837 7.60887489 39.66796875 7.66015625 C38.30301018 7.71410805 38.30301018 7.71410805 36.91047668 7.76914978 C34.98665756 7.83928457 33.06262051 7.90364584 31.13842773 7.96264648 C28.20650344 8.06185696 25.27941506 8.20934238 22.34960938 8.35742188 C20.47666022 8.41967955 18.60361135 8.47901932 16.73046875 8.53515625 C15.42543648 8.61274925 15.42543648 8.61274925 14.09403992 8.69190979 C10.33620503 8.75591897 7.94659141 8.68400822 4.83999634 6.43917847 C3.07024093 4.70396596 1.47202842 2.99308337 0 1 C0 0.67 0 0.34 0 0 Z " fill="#23ADA1" transform="translate(92,341)"/>
<path d="M0 0 C1.04671875 -0.01224609 2.0934375 -0.02449219 3.171875 -0.03710938 C9.52138764 -0.04901471 15.10879937 0.56226594 21.25 2.1875 C21.25 2.5175 21.25 2.8475 21.25 3.1875 C19.79176788 3.2145043 18.33339325 3.23389787 16.875 3.25 C16.06289063 3.26160156 15.25078125 3.27320313 14.4140625 3.28515625 C12.25 3.1875 12.25 3.1875 10.25 2.1875 C6.90224886 1.91938742 3.5447786 1.95583326 0.1875 1.9375 C-0.72966797 1.916875 -1.64683594 1.89625 -2.59179688 1.875 C-8.79037849 1.83985567 -14.0535776 2.66384182 -19.75 5.1875 C-20.08 5.5175 -20.41 5.8475 -20.75 6.1875 C-23.42058851 6.32865161 -26.07432238 6.22997107 -28.75 6.1875 C-26.14753837 4.45252558 -24.28910332 3.57481866 -21.375 2.625 C-20.62476563 2.37621094 -19.87453125 2.12742187 -19.1015625 1.87109375 C-12.70707636 0.0122315 -6.61574424 0.00401441 0 0 Z " fill="#23ADA1" transform="translate(249.75,29.8125)"/>
<path d="M0 0 C-0.66 0 -1.32 0 -2 0 C-2 0.66 -2 1.32 -2 2 C-12.23235821 4.62849569 -22.52676785 4.18464072 -33 4 C-33 4.66 -33 5.32 -33 6 C-31.68 6.33 -30.36 6.66 -29 7 C-29.33 8.32 -29.66 9.64 -30 11 C-34.6875 7.38671875 -34.6875 7.38671875 -36 6 C-36 5.01 -36 4.02 -36 3 C-34.06060547 2.94392578 -34.06060547 2.94392578 -32.08203125 2.88671875 C-22.88692843 2.55911278 -14.32179513 2.04310967 -5.43359375 -0.4765625 C-3 -1 -3 -1 0 0 Z " fill="#20A89B" transform="translate(155,363)"/>
<path d="M0 0 C5.58823264 1.35472306 8.69001754 5.58113173 12 10 C12.70280975 11.31464089 13.38245147 12.6432185 14 14 C14.99 13.67 15.98 13.34 17 13 C17.18304688 13.67417969 17.36609375 14.34835938 17.5546875 15.04296875 C19.62353695 19.2757229 22.75528445 22.07290218 26.125 25.3125 C26.78371094 25.95767578 27.44242188 26.60285156 28.12109375 27.26757812 C29.74080144 28.85207478 31.36710005 30.42912099 33 32 C32.505 32.99 32.505 32.99 32 34 C28.97489042 31.00428676 25.95572125 28.00265195 22.9375 25 C22.08994141 24.16082031 21.24238281 23.32164062 20.36914062 22.45703125 C15.36408604 17.4713012 10.56960233 12.38707301 6 7 C4.85430442 5.66654829 3.70847654 4.33321025 2.5625 3 C1.716875 2.01 0.87125 1.02 0 0 Z " fill="#105E55" transform="translate(196,171)"/>
<path d="M0 0 C0.66 0 1.32 0 2 0 C1.67 0.99 1.34 1.98 1 3 C0.67 2.01 0.34 1.02 0 0 Z M0 3 C0 3.33 0 3.66 0 4 C5.09733208 5.65932569 9.75038626 6.3263859 15.12109375 6.4140625 C15.86585464 6.43342865 16.61061554 6.4527948 17.37794495 6.4727478 C19.73101749 6.53200156 22.08414043 6.57870914 24.4375 6.625 C26.04363983 6.66322985 27.64976025 6.70228442 29.25585938 6.7421875 C33.17041325 6.8376575 37.08506291 6.92188543 41 7 C41 7.66 41 8.32 41 9 C36.25284984 8.95528466 31.50695986 8.88488524 26.76049805 8.79248047 C25.15187713 8.76456583 23.54312657 8.74320746 21.93432617 8.72900391 C11.56382918 8.63205317 2.77842696 7.77203553 -7 4 C-3.375 1.875 -3.375 1.875 0 3 Z " fill="#25A99E" transform="translate(360,340)"/>
<path d="M0 0 C0.99 0.33 1.98 0.66 3 1 C3 1.66 3 2.32 3 3 C3.66 3.33 4.32 3.66 5 4 C5 5.65 5 7.3 5 9 C5.66 9 6.32 9 7 9 C7.33 10.65 7.66 12.3 8 14 C9.32 14.33 10.64 14.66 12 15 C11.34 15 10.68 15 10 15 C10.26676204 16.98491642 10.26676204 16.98491642 11 19 C11.99 19.33 12.98 19.66 14 20 C15.39712274 21.95597184 16.73779907 23.95436401 18 26 C15 26 15 26 13.203125 24.3046875 C0 7.88 0 7.88 0 0 Z " fill="#169385" transform="translate(33,272)"/>
<path d="M0 0 C4.48320008 1.40900574 6.75546169 3.67434824 10 7 C11.2065625 7.680625 11.2065625 7.680625 12.4375 8.375 C15.97728433 10.61974128 18.59656917 13.57242682 21 17 C21 17.66 21 18.32 21 19 C21.804375 19.2475 22.60875 19.495 23.4375 19.75 C24.283125 20.1625 25.12875 20.575 26 21 C26.66015625 23.078125 26.66015625 23.078125 27 25 C21.21936052 20.91381763 16.184641 16.44082777 11.25 11.375 C10.60417969 10.72015625 9.95835937 10.0653125 9.29296875 9.390625 C8.06237586 8.14234391 6.83372544 6.89214359 5.60742188 5.63964844 C3.75145238 3.74646935 1.87939907 1.86990716 0 0 Z " fill="#105B53" transform="translate(169,146)"/>
<path d="M0 0 C5.45503601 4.44014559 10.37884737 9.30657328 15.29174805 14.32885742 C18.37457571 17.45993401 21.49570851 20.32944329 25 23 C19.52469367 22.08744894 16.29506143 20.69446805 12.75 16.375 C9.5854209 12.60764393 6.19499509 9.21694522 2.6015625 5.859375 C0.89113226 3.87360721 0.39659568 2.56087498 0 0 Z " fill="#16786E" transform="translate(215,215)"/>
<path d="M0 0 C0.33 1.32 0.66 2.64 1 4 C-0.485 4.8971875 -0.485 4.8971875 -2 5.8125 C-2.99 6.534375 -3.98 7.25625 -5 8 C-5 8.99 -5 9.98 -5 11 C-3.88882813 10.97679687 -2.77765625 10.95359375 -1.6328125 10.9296875 C15.79983681 10.6749388 15.79983681 10.6749388 22 13 C22.33 13.66 22.66 14.32 23 15 C22.36578125 14.86722656 21.7315625 14.73445312 21.078125 14.59765625 C11.10607832 12.71068057 1.12276364 12.38010377 -9 12 C-8.20176505 8.12589973 -6.81801278 6.49334551 -3.9375 3.75 C-3.20402344 3.04359375 -2.47054687 2.3371875 -1.71484375 1.609375 C-1.14894531 1.07828125 -0.58304688 0.5471875 0 0 Z " fill="#25A398" transform="translate(128,122)"/>
<path d="M0 0 C2.475 0.99 2.475 0.99 5 2 C0.01595832 8.03331362 -5.41915303 13.5184171 -11 19 C-11.99 17.68 -12.98 16.36 -14 15 C-13.01 14.67 -12.02 14.34 -11 14 C-10.34 14.33 -9.68 14.66 -9 15 C-9.33 14.01 -9.66 13.02 -10 12 C-8.68 12 -7.36 12 -6 12 C-6.33 11.01 -6.66 10.02 -7 9 C-6.34 9 -5.68 9 -5 9 C-4.67 8.01 -4.34 7.02 -4 6 C-2.68 6 -1.36 6 0 6 C0 4.02 0 2.04 0 0 Z " fill="#108B7F" transform="translate(357,385)"/>
<path d="M0 0 C4.16933068 1.63759253 6.9793547 4.6839587 10.0625 7.8125 C10.59166016 8.33392578 11.12082031 8.85535156 11.66601562 9.39257812 C14.64029759 12.38178748 16.9945955 15.24593829 19 19 C18.34 19.33 17.68 19.66 17 20 C17 19.34 17 18.68 17 18 C15.02 18 13.04 18 11 18 C11.33 17.01 11.66 16.02 12 15 C9.73675716 12.92140082 9.73675716 12.92140082 7 12 C6.6596875 10.700625 6.6596875 10.700625 6.3125 9.375 C4.75974905 5.38221186 2.85680105 3.15751695 0 0 Z " fill="#0C5A52" transform="translate(274,293)"/>
<path d="M0 0 C0.33 0.66 0.66 1.32 1 2 C0.67 2.99 0.34 3.98 0 5 C-0.66 5 -1.32 5 -2 5 C-2.268125 5.556875 -2.53625 6.11375 -2.8125 6.6875 C-3.204375 7.450625 -3.59625 8.21375 -4 9 C-4.4125 9.886875 -4.825 10.77375 -5.25 11.6875 C-7 14 -7 14 -10.1875 14.8125 C-11.115625 14.874375 -12.04375 14.93625 -13 15 C-13.33 14.01 -13.66 13.02 -14 12 C-13.49210937 11.63648438 -12.98421875 11.27296875 -12.4609375 10.8984375 C-7.89812427 7.56604581 -3.89644336 4.09126553 0 0 Z " fill="#109D91" transform="translate(281,224)"/>
<path d="M0 0 C1.32 0.66 2.64 1.32 4 2 C2.0238076 4.00301854 0.04425526 6.00249867 -1.9375 8 C-2.50146484 8.57234375 -3.06542969 9.1446875 -3.64648438 9.734375 C-5.07878776 11.17525505 -6.53741129 12.58987143 -8 14 C-8.33 14 -8.66 14 -9 14 C-9 12.35 -9 10.7 -9 9 C-8.01 9.33 -7.02 9.66 -6 10 C-6.33 8.68 -6.66 7.36 -7 6 C-6.01 5.67 -5.02 5.34 -4 5 C-4 4.01 -4 3.02 -4 2 C-2.68 1.67 -1.36 1.34 0 1 C0 0.67 0 0.34 0 0 Z " fill="#0F8D7F" transform="translate(414,330)"/>
<path d="M0 0 C5.66129431 4.69766975 10.85228904 9.74723372 16 15 C15.34 15.66 14.68 16.32 14 17 C11.0625 15.75 11.0625 15.75 8 14 C7.4375 12.0625 7.4375 12.0625 7 10 C4.75900598 7.98885152 2.69395269 6.34697635 0 5 C0 3.35 0 1.7 0 0 Z " fill="#127D70" transform="translate(330,81)"/>
<path d="M0 0 C3.28429949 0.60820361 6.38285187 1.42650809 9.5625 2.4375 C18.15064382 4.85069744 27.14142642 5.27491176 36 6 C35.67 6.99 35.34 7.98 35 9 C34.34 9 33.68 9 33 9 C33 8.34 33 7.68 33 7 C32.05253906 7.03480469 32.05253906 7.03480469 31.0859375 7.0703125 C20.15951474 7.29073025 9.53049391 6.71829635 0 1 C0 0.67 0 0.34 0 0 Z " fill="#229E92" transform="translate(346,360)"/>
<path d="M0 0 C0 3 0 3 -2.625 5.91796875 C-3.74249406 7.01550756 -4.86785643 8.10507895 -6 9.1875 C-6.57234375 9.74630859 -7.1446875 10.30511719 -7.734375 10.88085938 C-9.14962788 12.26073093 -10.57397155 13.63126734 -12 15 C-12.99 13.68 -13.98 12.36 -15 11 C-14.01 10.67 -13.02 10.34 -12 10 C-11.34 10.33 -10.68 10.66 -10 11 C-10.33 10.01 -10.66 9.02 -11 8 C-9.68 8 -8.36 8 -7 8 C-7.33 7.01 -7.66 6.02 -8 5 C-7.34 5 -6.68 5 -6 5 C-5.525625 4.360625 -5.05125 3.72125 -4.5625 3.0625 C-3 1 -3 1 0 0 Z " fill="#118377" transform="translate(454,293)"/>
<path d="M0 0 C0.66 0.33 1.32 0.66 2 1 C0.1875 3 0.1875 3 -2 5 C-2.99 5 -3.98 5 -5 5 C-5 5.99 -5 6.98 -5 8 C-5.78375 8.0825 -6.5675 8.165 -7.375 8.25 C-10.14749104 8.72806339 -10.14749104 8.72806339 -11.3125 11.0625 C-11.539375 11.701875 -11.76625 12.34125 -12 13 C-13.65 13 -15.3 13 -17 13 C-12.22250596 7.74475656 -6.367315 3.1836575 0 0 Z " fill="#168A7E" transform="translate(219,36)"/>
<path d="M0 0 C0.33 1.32 0.66 2.64 1 4 C0.34 4 -0.32 4 -1 4 C-0.67 5.32 -0.34 6.64 0 8 C-0.99 8.33 -1.98 8.66 -3 9 C-4.66710346 10.49985609 -4.66710346 10.49985609 -6 12 C-7.32 11.34 -8.64 10.68 -10 10 C-6.7 6.7 -3.4 3.4 0 0 Z " fill="#0F8E84" transform="translate(308,197)"/>
<path d="M0 0 C2.97 0.495 2.97 0.495 6 1 C2.6189962 5.13621084 -0.66590534 8.81316569 -5 12 C-5 10.35 -5 8.7 -5 7 C-4.01 7.33 -3.02 7.66 -2 8 C-2.33 6.68 -2.66 5.36 -3 4 C-2.01 3.67 -1.02 3.34 0 3 C0 2.01 0 1.02 0 0 Z " fill="#0E8D80" transform="translate(330,412)"/>
<path d="M0 0 C5.66129431 4.69766975 10.85228904 9.74723372 16 15 C15.34 15.66 14.68 16.32 14 17 C11.84475774 14.92569173 9.70098609 12.84146179 7.5625 10.75 C6.64500977 9.87021484 6.64500977 9.87021484 5.70898438 8.97265625 C5.12568359 8.39902344 4.54238281 7.82539063 3.94140625 7.234375 C3.40201416 6.71069336 2.86262207 6.18701172 2.30688477 5.64746094 C0.82879242 3.78417546 0.40834789 2.32206478 0 0 Z " fill="#15776D" transform="translate(199,199)"/>
<path d="M0 0 C5.66129431 4.69766975 10.85228904 9.74723372 16 15 C15.34 15.66 14.68 16.32 14 17 C11.84475774 14.92569173 9.70098609 12.84146179 7.5625 10.75 C6.64500977 9.87021484 6.64500977 9.87021484 5.70898438 8.97265625 C5.12568359 8.39902344 4.54238281 7.82539063 3.94140625 7.234375 C3.40201416 6.71069336 2.86262207 6.18701172 2.30688477 5.64746094 C0.82879242 3.78417546 0.40834789 2.32206478 0 0 Z " fill="#17786E" transform="translate(181,181)"/>
<path d="M0 0 C4.91935902 4.11619836 9.52647956 8.40410362 14 13 C13.34 13.66 12.68 14.32 12 15 C9.0625 13.75 9.0625 13.75 6 12 C5.4375 10.1875 5.4375 10.1875 5 8 C4.18426546 6.92797048 3.32509307 5.88833542 2.4375 4.875 C0 2 0 2 0 0 Z " fill="#128A7C" transform="translate(316,67)"/>
<path d="M0 0 C0 0.99 0 1.98 0 3 C-1.93139795 4.93139795 -5.39609481 4.64084066 -8 5 C-8.99 5.33 -9.98 5.66 -11 6 C-13.0720344 5.75867872 -15.13546206 5.43760371 -17.1875 5.0625 C-18.27417969 4.86785156 -19.36085937 4.67320312 -20.48046875 4.47265625 C-21.72763672 4.23869141 -21.72763672 4.23869141 -23 4 C-22.67 3.01 -22.34 2.02 -22 1 C-20.96552734 1.25136719 -20.96552734 1.25136719 -19.91015625 1.5078125 C-12.72716061 3.06462088 -6.70360419 3.35180209 0 0 Z " fill="#1B998E" transform="translate(265,237)"/>
<path d="M0 0 C0.66 0.66 1.32 1.32 2 2 C3.32 1.34 4.64 0.68 6 0 C5.814375 0.639375 5.62875 1.27875 5.4375 1.9375 C5.293125 2.618125 5.14875 3.29875 5 4 C5.33 4.33 5.66 4.66 6 5 C5.71395102 6.67542976 5.38218767 8.34385343 5 10 C2.69 8.02 0.38 6.04 -2 4 C-1.34 2.68 -0.68 1.36 0 0 Z " fill="#04BBAD" transform="translate(215,184)"/>
<path d="M0 0 C4.31730413 0.47409648 6.33647461 3.03396703 9.25 6.0625 C10.14203125 6.98160156 11.0340625 7.90070313 11.953125 8.84765625 C12.62859375 9.55792969 13.3040625 10.26820313 14 11 C13.34 11.66 12.68 12.32 12 13 C11.236875 12.38125 10.47375 11.7625 9.6875 11.125 C7.00374191 8.94402948 7.00374191 8.94402948 4 7 C3.3125 4.375 3.3125 4.375 3 2 C2.01 2 1.02 2 0 2 C0 1.34 0 0.68 0 0 Z " fill="#168478" transform="translate(398,151)"/>
<path d="M0 0 C5.75 1.625 5.75 1.625 8 5 C10.05003955 6.19232613 10.05003955 6.19232613 12 7 C12 8.32 12 9.64 12 11 C12.66 11.33 13.32 11.66 14 12 C11 12 11 12 8.30078125 9.62890625 C7.29691517 8.61440318 6.30108274 7.59190164 5.3125 6.5625 C4.80138672 6.04623047 4.29027344 5.52996094 3.76367188 4.99804688 C0 1.15397613 0 1.15397613 0 0 Z " fill="#14786C" transform="translate(130,379)"/>
<path d="M0 0 C1.65 0 3.3 0 5 0 C1.0580583 4.88049925 -3.11950075 9.0580583 -8 13 C-7.67 11.35 -7.34 9.7 -7 8 C-6.34 8 -5.68 8 -5 8 C-4.67 7.01 -4.34 6.02 -4 5 C-3.34 5.33 -2.68 5.66 -2 6 C-1.34 4.02 -0.68 2.04 0 0 Z " fill="#147E73" transform="translate(226,269)"/>
<path d="M0 0 C0.66 0.33 1.32 0.66 2 1 C2 1.66 2 2.32 2 3 C1.34 3 0.68 3 0 3 C0.061875 3.73605469 0.12375 4.47210938 0.1875 5.23046875 C-0.03734502 8.55161709 -0.92327836 9.75986299 -3 12.3125 C-3.556875 13.00988281 -4.11375 13.70726562 -4.6875 14.42578125 C-5.120625 14.94527344 -5.55375 15.46476563 -6 16 C-6.66 15.67 -7.32 15.34 -8 15 C-6.85657478 12.68628057 -5.71038936 10.37400323 -4.5625 8.0625 C-4.23701172 7.40314453 -3.91152344 6.74378906 -3.57617188 6.06445312 C-1.11328125 1.11328125 -1.11328125 1.11328125 0 0 Z " fill="#158F83" transform="translate(41,211)"/>
<path d="M0 0 C0.33 0.66 0.66 1.32 1 2 C1.66 2.33 2.32 2.66 3 3 C1.68 3 0.36 3 -1 3 C-1 3.99 -1 4.98 -1 6 C-1.99 6.66 -2.98 7.32 -4 8 C-3.67 8.66 -3.34 9.32 -3 10 C-7.455 11.485 -7.455 11.485 -12 13 C-8.17420552 8.44548277 -4.25602708 4.15469311 0 0 Z " fill="#137E75" transform="translate(342,163)"/>
<path d="M0 0 C2.36239026 1.4734745 4.01171541 3.01171541 6 5 C5.01 5.495 5.01 5.495 4 6 C3.34 5.67 2.68 5.34 2 5 C2 4.34 2 3.68 2 3 C1.01 3 0.02 3 -1 3 C-1 2.34 -1 1.68 -1 1 C-4.3 1 -7.6 1 -11 1 C-11.33 1.99 -11.66 2.98 -12 4 C-12.99 3.34 -13.98 2.68 -15 2 C-9.87051056 -1.28813426 -5.74736035 -1.7313795 0 0 Z " fill="#21AD9E" transform="translate(259,278)"/>
<path d="M0 0 C2.875 -0.125 2.875 -0.125 6 0 C6.66 0.66 7.32 1.32 8 2 C10.44012949 2.24287489 10.44012949 2.24287489 13.125 2.125 C14.03507812 2.10695312 14.94515625 2.08890625 15.8828125 2.0703125 C16.58148438 2.04710937 17.28015625 2.02390625 18 2 C15.26765918 4.73234082 13.07854865 4.68821642 9.328125 5.0390625 C5.95849438 4.98252507 3.75947965 3.86264876 1 2 C0.67 1.34 0.34 0.68 0 0 Z " fill="#23AC9D" transform="translate(243,218)"/>
<path d="M0 0 C0.33 1.32 0.66 2.64 1 4 C0.34 4 -0.32 4 -1 4 C-1 4.66 -1 5.32 -1 6 C-2.41233326 6.94155551 -3.82853283 7.87793492 -5.265625 8.78125 C-8.19879102 10.84239369 -10.52954636 13.41190571 -13 16 C-13.66 15.67 -14.32 15.34 -15 15 C-10.05 10.05 -5.1 5.1 0 0 Z " fill="#21958A" transform="translate(324,181)"/>
<path d="M0 0 C0.33 0.66 0.66 1.32 1 2 C0.06553465 4.03144641 -0.93224776 6.03533587 -2 8 C-2.66 8 -3.32 8 -4 8 C-4 8.66 -4 9.32 -4 10 C-6.31 10.66 -8.62 11.32 -11 12 C-7.49102731 7.81576108 -3.91939465 3.80411834 0 0 Z " fill="#108074" transform="translate(161,89)"/>
<path d="M0 0 C1.13199353 0.9080162 2.25532363 1.82683826 3.375 2.75 C4.00148438 3.26046875 4.62796875 3.7709375 5.2734375 4.296875 C7.08312318 6.08199481 8.00117455 7.67949644 9 10 C7.02 10 5.04 10 3 10 C1.87024167 6.68604223 0.82115227 3.40297337 0 0 Z " fill="#14A796" transform="translate(265,284)"/>
<path d="M0 0 C0.33 0.66 0.66 1.32 1 2 C0.67 2.99 0.34 3.98 0 5 C-0.99 5.33 -1.98 5.66 -3 6 C-3.33 7.65 -3.66 9.3 -4 11 C-4.66 11 -5.32 11 -6 11 C-6.66 12.32 -7.32 13.64 -8 15 C-9 13 -9 13 -7.9375 9.75 C-6.07812807 5.60551209 -3.33267046 3.03643308 0 0 Z " fill="#0ABCAB" transform="translate(193,57)"/>
<path d="M0 0 C0 3.10551666 -0.5393715 4.35261084 -2 7 C-2.66 7 -3.32 7 -4 7 C-4.226875 7.639375 -4.45375 8.27875 -4.6875 8.9375 C-6 11 -6 11 -8.625 11.75 C-9.40875 11.8325 -10.1925 11.915 -11 12 C-7.49102731 7.81576108 -3.91939465 3.80411834 0 0 Z " fill="#128074" transform="translate(149,101)"/>
<path d="M0 0 C0 1.65 0 3.3 0 5 C-1.32 5 -2.64 5 -4 5 C-4.103125 5.61875 -4.20625 6.2375 -4.3125 6.875 C-5 9 -5 9 -8 11 C-8.99 10.67 -9.98 10.34 -11 10 C-9.35718838 8.33035479 -7.71067239 6.6643536 -6.0625 5 C-5.14597656 4.071875 -4.22945312 3.14375 -3.28515625 2.1875 C-1 0 -1 0 0 0 Z " fill="#107F73" transform="translate(173,78)"/>
<path d="M0 0 C2.61724095 2.36797991 4.32861729 4.89600354 6 8 C6 8.66 6 9.32 6 10 C3.5 11.625 3.5 11.625 1 13 C0.61781233 11.34385343 0.28604898 9.67542976 0 8 C0.33 7.67 0.66 7.34 1 7 C0.71269945 4.66055264 0.38063221 2.3260857 0 0 Z " fill="#0E988B" transform="translate(458,211)"/>
<path d="M0 0 C4.13621084 3.3810038 7.81316569 6.66590534 11 11 C10.01 11.495 10.01 11.495 9 12 C8.443125 11.38125 7.88625 10.7625 7.3125 10.125 C4.93354822 7.93893621 3.03642904 7.01214301 0 6 C0 4.02 0 2.04 0 0 Z " fill="#128376" transform="translate(346,97)"/>
<path d="M0 0 C1.32 0.66 2.64 1.32 4 2 C1.36 4.64 -1.28 7.28 -4 10 C-4.99 8.68 -5.98 7.36 -7 6 C-6.01 5.67 -5.02 5.34 -4 5 C-3.34 5.33 -2.68 5.66 -2 6 C-2.33 5.01 -2.66 4.02 -3 3 C-1.68 3 -0.36 3 1 3 C0.67 2.01 0.34 1.02 0 0 Z " fill="#108679" transform="translate(318,426)"/>
<path d="M0 0 C1.32 0 2.64 0 4 0 C4.33 0.99 4.66 1.98 5 3 C2.69 4.98 0.38 6.96 -2 9 C-2.20140476 5.37471432 -1.85776765 3.13498292 0 0 Z " fill="#0C9285" transform="translate(375,367)"/>
<path d="M0 0 C1.32 0.66 2.64 1.32 4 2 C1.36 4.64 -1.28 7.28 -4 10 C-4.99 8.68 -5.98 7.36 -7 6 C-6.01 5.67 -5.02 5.34 -4 5 C-3.34 5.33 -2.68 5.66 -2 6 C-2.33 5.01 -2.66 4.02 -3 3 C-1.68 3 -0.36 3 1 3 C0.67 2.01 0.34 1.02 0 0 Z " fill="#0F867A" transform="translate(430,314)"/>
<path d="M0 0 C0.33 1.32 0.66 2.64 1 4 C-0.07543783 4.98783194 -1.16073217 5.96493943 -2.25 6.9375 C-3.15492188 7.75541016 -3.15492188 7.75541016 -4.078125 8.58984375 C-6.08467305 10.06212799 -7.57002449 10.57529189 -10 11 C-6.79239749 7.19364503 -3.59253891 3.45436433 0 0 Z " fill="#147A70" transform="translate(292,213)"/>
<path d="M0 0 C7.48291572 6.15034169 7.48291572 6.15034169 10 10 C6.71823412 10 4.89111788 9.52164099 2 8 C1.25 6.125 1.25 6.125 1 4 C0.67703911 2.66411634 0.34510767 1.33033439 0 0 Z " fill="#128074" transform="translate(416,167)"/>
<path d="M0 0 C0.28875 0.969375 0.5775 1.93875 0.875 2.9375 C1.64214682 6.10664203 1.64214682 6.10664203 4 7 C3.67 7.99 3.34 8.98 3 10 C1.87105124 9.06725891 0.74699124 8.12859878 -0.375 7.1875 C-1.00148437 6.66542969 -1.62796875 6.14335937 -2.2734375 5.60546875 C-4 4 -4 4 -6 1 C-1.125 0 -1.125 0 0 0 Z " fill="#138579" transform="translate(180,422)"/>
<path d="M0 0 C1.32 0.66 2.64 1.32 4 2 C2.8572081 3.16964602 1.71068285 4.33564556 0.5625 5.5 C-0.07558594 6.1496875 -0.71367187 6.799375 -1.37109375 7.46875 C-3 9 -3 9 -4 9 C-4 6.69 -4 4.38 -4 2 C-2.68 1.67 -1.36 1.34 0 1 C0 0.67 0 0.34 0 0 Z " fill="#0F8C7D" transform="translate(366,378)"/>
<path d="M0 0 C1.64936913 0.78427352 3.29441127 1.57765259 4.9375 2.375 C5.85402344 2.81585938 6.77054687 3.25671875 7.71484375 3.7109375 C10 5 10 5 11 7 C8.69 7.33 6.38 7.66 4 8 C4 6.68 4 5.36 4 4 C3.01 4 2.02 4 1 4 C0.67 2.68 0.34 1.36 0 0 Z " fill="#128F82" transform="translate(278,35)"/>
<path d="M0 0 C2.97 0.495 2.97 0.495 6 1 C5.04578192 2.14926266 4.08647955 3.29430541 3.125 4.4375 C2.59132813 5.07558594 2.05765625 5.71367187 1.5078125 6.37109375 C0 8 0 8 -2 9 C-2.33 7.68 -2.66 6.36 -3 5 C-2.01 4.67 -1.02 4.34 0 4 C0 2.68 0 1.36 0 0 Z " fill="#108A7C" transform="translate(298,444)"/>
<path d="M0 0 C2.97 1.65 5.94 3.3 9 5 C9 5.33 9 5.66 9 6 C6.36 6.66 3.72 7.32 1 8 C0 5 0 5 0 0 Z " fill="#149E8F" transform="translate(329,349)"/>
<path d="M0 0 C0.33 1.32 0.66 2.64 1 4 C-0.485 4.8971875 -0.485 4.8971875 -2 5.8125 C-2.99 6.534375 -3.98 7.25625 -5 8 C-5 8.99 -5 9.98 -5 11 C-6.32 10.34 -7.64 9.68 -9 9 C-6.03 6.03 -3.06 3.06 0 0 Z " fill="#127B70" transform="translate(128,122)"/>
<path d="M0 0 C7.48291572 6.15034169 7.48291572 6.15034169 10 10 C6.07176899 10 4.93381106 8.48245551 2 6 C1.34 5.67 0.68 5.34 0 5 C0 3.35 0 1.7 0 0 Z " fill="#137E70" transform="translate(362,113)"/>
<path d="M0 0 C0 0.66 0 1.32 0 2 C-1.60149886 2.67305018 -3.20631029 3.33822227 -4.8125 4 C-5.70582031 4.37125 -6.59914062 4.7425 -7.51953125 5.125 C-10 6 -10 6 -13 6 C-13 5.01 -13 4.02 -13 3 C-11.2092015 2.49689942 -9.41733089 1.99761372 -7.625 1.5 C-6.62726563 1.2215625 -5.62953125 0.943125 -4.6015625 0.65625 C-2 0 -2 0 0 0 Z " fill="#169587" transform="translate(247,259)"/>
<path d="M0 0 C0.33 0 0.66 0 1 0 C1.33 2.31 1.66 4.62 2 7 C2.99 7 3.98 7 5 7 C5.33 7.99 5.66 8.98 6 10 C3 10 3 10 0.3125 7.5 C-0.450625 6.675 -1.21375 5.85 -2 5 C-1.34 3.35 -0.68 1.7 0 0 Z " fill="#13897E" transform="translate(83,326)"/>
<path d="M0 0 C2.31 0.66 4.62 1.32 7 2 C7 2.66 7 3.32 7 4 C7.66 4 8.32 4 9 4 C8.67 5.32 8.34 6.64 8 8 C6.66372225 6.85760183 5.33104612 5.71098945 4 4.5625 C3.2575 3.92441406 2.515 3.28632813 1.75 2.62890625 C1.1725 2.09136719 0.595 1.55382812 0 1 C0 0.67 0 0.34 0 0 Z M8 1 C8.99 1.495 8.99 1.495 10 2 C9.67 2.66 9.34 3.32 9 4 C8.67 3.01 8.34 2.02 8 1 Z " fill="#15B2A3" transform="translate(171,146)"/>
<path d="M0 0 C0.99 0.33 1.98 0.66 3 1 C3 1.99 3 2.98 3 4 C2.01 4.33 1.02 4.66 0 5 C-0.66 5.66 -1.32 6.32 -2 7 C-2.99 6.34 -3.98 5.68 -5 5 C-3.35 3.35 -1.7 1.7 0 0 Z " fill="#14B5A8" transform="translate(209,315)"/>
<path d="M0 0 C0.66 1.32 1.32 2.64 2 4 C-0.85306797 6.32472205 -3.54074837 7.7508258 -7 9 C-6.02180976 7.68677212 -5.0424189 6.37443848 -4.0625 5.0625 C-3.51722656 4.33160156 -2.97195312 3.60070312 -2.41015625 2.84765625 C-1 1 -1 1 0 0 Z " fill="#107B6F" transform="translate(49,201)"/>
<path d="M0 0 C0.66 0 1.32 0 2 0 C1.67 0.99 1.34 1.98 1 3 C0.67 2.01 0.34 1.02 0 0 Z M0 3 C0 3.33 0 3.66 0 4 C1.65 4.33 3.3 4.66 5 5 C5 5.33 5 5.66 5 6 C0.45194365 6.17835515 -2.8794254 5.99785435 -7 4 C-3.375 1.875 -3.375 1.875 0 3 Z " fill="#15ADA1" transform="translate(360,340)"/>
<path d="M0 0 C1.32 0 2.64 0 4 0 C4 0.66 4 1.32 4 2 C5.32 2.33 6.64 2.66 8 3 C8 4.65 8 6.3 8 8 C6.85073734 7.04578192 5.70569459 6.08647955 4.5625 5.125 C3.92441406 4.59132813 3.28632813 4.05765625 2.62890625 3.5078125 C1 2 1 2 0 0 Z " fill="#127F73" transform="translate(335,329)"/>
<path d="M0 0 C1.32 0 2.64 0 4 0 C4 0.66 4 1.32 4 2 C5.32 2.33 6.64 2.66 8 3 C8 4.65 8 6.3 8 8 C6.85073734 7.04578192 5.70569459 6.08647955 4.5625 5.125 C3.92441406 4.59132813 3.28632813 4.05765625 2.62890625 3.5078125 C1 2 1 2 0 0 Z " fill="#127F73" transform="translate(319,313)"/>
<path d="M0 0 C1.32 0 2.64 0 4 0 C4 0.66 4 1.32 4 2 C5.32 2.33 6.64 2.66 8 3 C8 4.65 8 6.3 8 8 C6.85073734 7.04578192 5.70569459 6.08647955 4.5625 5.125 C3.92441406 4.59132813 3.28632813 4.05765625 2.62890625 3.5078125 C1 2 1 2 0 0 Z " fill="#137E73" transform="translate(287,281)"/>
<path d="M0 0 C0.33 0.66 0.66 1.32 1 2 C-0.54442235 5.63393495 -1.48567857 6.78822059 -5.1875 8.3125 C-6.5796875 8.6528125 -6.5796875 8.6528125 -8 9 C-7.04270084 7.87411986 -6.08412105 6.7493285 -5.125 5.625 C-4.59132813 4.99851563 -4.05765625 4.37203125 -3.5078125 3.7265625 C-2.38567993 2.44163349 -1.20628025 1.20628025 0 0 Z " fill="#11776C" transform="translate(89,161)"/>
<path d="M0 0 C3.94139078 1.66751148 6.7892812 4.22710649 10 7 C9.34 7.66 8.68 8.32 8 9 C7.67 8.01 7.34 7.02 7 6 C6.195625 5.690625 5.39125 5.38125 4.5625 5.0625 C2 4 2 4 0.6875 1.875 C0.460625 1.25625 0.23375 0.6375 0 0 Z " fill="#15766B" transform="translate(289,42)"/>
<path d="M0 0 C2.375 -0.125 2.375 -0.125 5 0 C7 2 7 2 7 5 C7.66 5.33 8.32 5.66 9 6 C4.58763974 6 3.21615077 3.9302707 0 1 C0 0.67 0 0.34 0 0 Z " fill="#117C70" transform="translate(201,450)"/>
<path d="M0 0 C0.33 1.32 0.66 2.64 1 4 C-1.3125 6.0625 -1.3125 6.0625 -4 8 C-4.99 7.67 -5.98 7.34 -7 7 C-4.69 4.69 -2.38 2.38 0 0 Z " fill="#0F7D70" transform="translate(57,193)"/>
<path d="M0 0 C3.59391114 1.33488128 6.75490696 2.96022723 10 5 C9.01 5.495 9.01 5.495 8 6 C7.67 6.66 7.34 7.32 7 8 C5.83035398 6.8572081 4.66435444 5.71068285 3.5 4.5625 C2.8503125 3.92441406 2.200625 3.28632813 1.53125 2.62890625 C0 1 0 1 0 0 Z " fill="#127A6E" transform="translate(92,341)"/>
<path d="M0 0 C2.81872737 0.38878998 3.77195598 0.70810365 5.5625 3 C6.036875 3.66 6.51125 4.32 7 5 C7.99 5.33 8.98 5.66 10 6 C9.67 7.32 9.34 8.64 9 10 C7.49702124 8.52386015 5.99768715 7.04400843 4.5 5.5625 C3.6646875 4.73878906 2.829375 3.91507812 1.96875 3.06640625 C0 1 0 1 0 0 Z " fill="#199489" transform="translate(309,303)"/>
<path d="M0 0 C4.87685861 1.35468295 6.48592381 3.71675909 9 8 C8.01 8 7.02 8 6 8 C4.39453125 6.25 4.39453125 6.25 2.8125 4 C2.28269531 3.2575 1.75289062 2.515 1.20703125 1.75 C0.80871094 1.1725 0.41039062 0.595 0 0 Z " fill="#147167" transform="translate(42,290)"/>
<path d="M0 0 C3.36720387 1.39332574 4.9859524 2.9789286 7 6 C3.79604584 6 1.90600261 5.25664978 -1 4 C-0.67 2.68 -0.34 1.36 0 0 Z " fill="#12897C" transform="translate(339,91)"/>
<path d="M0 0 C0.33 0.66 0.66 1.32 1 2 C-0.125 4.5625 -0.125 4.5625 -2 7 C-4.6875 7.8125 -4.6875 7.8125 -7 8 C-6.02133662 6.85373678 -5.04205413 5.70800212 -4.0625 4.5625 C-3.51722656 3.92441406 -2.97195312 3.28632812 -2.41015625 2.62890625 C-1.63204305 1.73008851 -0.84063472 0.84063472 0 0 Z " fill="#117B6E" transform="translate(201,49)"/>
<path d="M0 0 C2.31 0.33 4.62 0.66 7 1 C7 2.98 7 4.96 7 7 C5.83040013 6.02433888 4.66438823 5.044375 3.5 4.0625 C2.8503125 3.51722656 2.200625 2.97195313 1.53125 2.41015625 C1.0259375 1.94480469 0.520625 1.47945313 0 1 C0 0.67 0 0.34 0 0 Z " fill="#117F74" transform="translate(167,416)"/>
<path d="M0 0 C2.31 0.33 4.62 0.66 7 1 C7 2.98 7 4.96 7 7 C5.83040013 6.02433888 4.66438823 5.044375 3.5 4.0625 C2.8503125 3.51722656 2.200625 2.97195313 1.53125 2.41015625 C1.0259375 1.94480469 0.520625 1.47945313 0 1 C0 0.67 0 0.34 0 0 Z " fill="#118074" transform="translate(151,400)"/>
<path d="M0 0 C2.475 0.495 2.475 0.495 5 1 C5 1.66 5 2.32 5 3 C5.66 3 6.32 3 7 3 C7.33 4.65 7.66 6.3 8 8 C6.85073734 7.04578192 5.70569459 6.08647955 4.5625 5.125 C3.92441406 4.59132813 3.28632813 4.05765625 2.62890625 3.5078125 C1 2 1 2 0 0 Z " fill="#128172" transform="translate(143,392)"/>
<path d="M0 0 C3.78383679 0.92493788 5.56693694 1.39371171 7.875 4.625 C8.431875 5.800625 8.431875 5.800625 9 7 C6 7 6 7 4.39453125 5.46875 C3.87246094 4.8190625 3.35039063 4.169375 2.8125 3.5 C2.28269531 2.8503125 1.75289063 2.200625 1.20703125 1.53125 C0.80871094 1.0259375 0.41039063 0.520625 0 0 Z " fill="#14786C" transform="translate(66,315)"/>
<path d="M0 0 C2.9719385 1.12451727 5.33440687 2.22293791 8 4 C7.67 5.32 7.34 6.64 7 8 C5.83035398 6.8572081 4.66435444 5.71068285 3.5 4.5625 C2.8503125 3.92441406 2.200625 3.28632813 1.53125 2.62890625 C0 1 0 1 0 0 Z " fill="#15766D" transform="translate(295,289)"/>
<path d="M0 0 C0 0.99 0 1.98 0 3 C-0.66 3 -1.32 3 -2 3 C-2.66 4.32 -3.32 5.64 -4 7 C-5.32 6.34 -6.64 5.68 -8 5 C-4.04 2.525 -4.04 2.525 0 0 Z " fill="#15867B" transform="translate(351,157)"/>
<path d="M0 0 C0.33 0.66 0.66 1.32 1 2 C-0.125 4.5625 -0.125 4.5625 -2 7 C-4.6875 7.8125 -4.6875 7.8125 -7 8 C-6.02133662 6.85373678 -5.04205413 5.70800212 -4.0625 4.5625 C-3.51722656 3.92441406 -2.97195312 3.28632813 -2.41015625 2.62890625 C-1.63204305 1.73008851 -0.84063472 0.84063472 0 0 Z " fill="#12776C" transform="translate(97,153)"/>
<path d="M0 0 C-3.28260659 2.18840439 -6.50818073 4.15885893 -10 6 C-10.66 5.67 -11.32 5.34 -12 5 C-11.01 4.67 -10.02 4.34 -9 4 C-9 3.01 -9 2.02 -9 1 C-5.92677456 0.08941469 -3.19902639 -0.08886184 0 0 Z " fill="#1EAFA0" transform="translate(349,139)"/>
<path d="M0 0 C1.32 0.66 2.64 1.32 4 2 C0.535 4.97 0.535 4.97 -3 8 C-2.45276317 4.62537285 -1.9451 2.91765 0 0 Z " fill="#147B71" transform="translate(213,282)"/>
<path d="M0 0 C1.17539996 0.92652701 2.34010577 1.86663387 3.5 2.8125 C4.1496875 3.33457031 4.799375 3.85664063 5.46875 4.39453125 C7 6 7 6 7 9 C0.70535714 4.17857143 0.70535714 4.17857143 0 0 Z " fill="#157369" transform="translate(167,167)"/>
<path d="M0 0 C0 3.21518097 -0.1621112 4.41024759 -2 7 C-5.125 8.25 -5.125 8.25 -8 9 C-7.04270084 7.87411986 -6.08412105 6.7493285 -5.125 5.625 C-4.59132812 4.99851562 -4.05765625 4.37203125 -3.5078125 3.7265625 C-2.38567993 2.44163349 -1.20628025 1.20628025 0 0 Z " fill="#136C61" transform="translate(137,113)"/>
<path d="M0 0 C0 1.65 0 3.3 0 5 C-2.90600261 6.25664978 -4.79604584 7 -8 7 C-6.8572081 5.83035398 -5.71068285 4.66435444 -4.5625 3.5 C-3.92441406 2.8503125 -3.28632813 2.200625 -2.62890625 1.53125 C-1 0 -1 0 0 0 Z " fill="#117569" transform="translate(181,70)"/>
<path d="M0 0 C1.17539996 0.92652701 2.34010577 1.86663387 3.5 2.8125 C4.1496875 3.33457031 4.799375 3.85664062 5.46875 4.39453125 C7 6 7 6 7 9 C0.70535714 4.17857143 0.70535714 4.17857143 0 0 Z " fill="#15756A" transform="translate(316,67)"/>
<path d="M0 0 C2.31 0.33 4.62 0.66 7 1 C6.67 2.65 6.34 4.3 6 6 C3.97945196 4.35830472 1.97956942 2.69088222 0 1 C0 0.67 0 0.34 0 0 Z " fill="#108377" transform="translate(119,368)"/>
<path d="M0 0 C1.32 0.66 2.64 1.32 4 2 C0.535 4.97 0.535 4.97 -3 8 C-2.625 5.5625 -2.625 5.5625 -2 3 C-1.34 2.67 -0.68 2.34 0 2 C0 1.34 0 0.68 0 0 Z " fill="#14766C" transform="translate(205,290)"/>
<path d="M0 0 C3.43595166 1.52708963 6.11912454 3.59927045 9 6 C5.65626525 5.44271087 2.96687001 4.64826111 0 3 C0 2.01 0 1.02 0 0 Z " fill="#187F76" transform="translate(231,232)"/>
<path d="M0 0 C0.66 0 1.32 0 2 0 C1.34 3.3 0.68 6.6 0 10 C-0.66 10 -1.32 10 -2 10 C-1.125 2.25 -1.125 2.25 0 0 Z " fill="#1FAFA1" transform="translate(33,227)"/>
<path d="M0 0 C0.33 1.32 0.66 2.64 1 4 C-1.375 5.5625 -1.375 5.5625 -4 7 C-4.66 6.67 -5.32 6.34 -6 6 C-4.02 4.02 -2.04 2.04 0 0 Z " fill="#12796E" transform="translate(80,170)"/>
<path d="M0 0 C-1.62249941 0.83819158 -3.24808497 1.6704116 -4.875 2.5 C-6.23238281 3.19609375 -6.23238281 3.19609375 -7.6171875 3.90625 C-10 5 -10 5 -12 5 C-11 2 -11 2 -9.2578125 1.015625 C-8.55398438 0.76296875 -7.85015625 0.5103125 -7.125 0.25 C-6.07699219 -0.14445313 -6.07699219 -0.14445313 -5.0078125 -0.546875 C-3 -1 -3 -1 0 0 Z " fill="#23A599" transform="translate(364,154)"/>
<path d="M0 0 C1.98 1.65 3.96 3.3 6 5 C5.34 5.66 4.68 6.32 4 7 C1.875 6.625 1.875 6.625 0 6 C0.33 5.34 0.66 4.68 1 4 C0.60061233 1.90178785 0.60061233 1.90178785 0 0 Z " fill="#0E8478" transform="translate(305,56)"/>
<path d="M0 0 C0.99 0.33 1.98 0.66 3 1 C3 2.32 3 3.64 3 5 C3.66 5.33 4.32 5.66 5 6 C2 6 2 6 0.3125 4.5 C-0.120625 4.005 -0.55375 3.51 -1 3 C-0.67 2.01 -0.34 1.02 0 0 Z " fill="#128A7D" transform="translate(139,385)"/>
<path d="M0 0 C1.32 0.66 2.64 1.32 4 2 C1.03 4.475 1.03 4.475 -2 7 C-2.33 6.34 -2.66 5.68 -3 5 C-1.5625 2.375 -1.5625 2.375 0 0 Z " fill="#127C73" transform="translate(165,330)"/>
<path d="M0 0 C5.66153846 1.47692308 5.66153846 1.47692308 7.375 4.125 C7.684375 5.053125 7.684375 5.053125 8 6 C5 6 5 6 3.61328125 4.6875 C2.40885417 3.125 1.20442708 1.5625 0 0 Z " fill="#14776C" transform="translate(50,299)"/>
<path d="M0 0 C0.66 0 1.32 0 2 0 C2 1.65 2 3.3 2 5 C-0.49064888 5.68707555 -2.37886292 6 -5 6 C-3.38405168 3.95880212 -1.7143618 1.95927063 0 0 Z " fill="#17B1A4" transform="translate(229,295)"/>
<path d="M0 0 C0.33 1.32 0.66 2.64 1 4 C0.34 4 -0.32 4 -1 4 C-1 4.66 -1 5.32 -1 6 C-2.32 6.33 -3.64 6.66 -5 7 C-3.70700306 4.11562221 -2.34058637 2.12780579 0 0 Z " fill="#147E73" transform="translate(324,181)"/>
<path d="M0 0 C-0.99 1.485 -0.99 1.485 -2 3 C-3.9453125 3.29296875 -3.9453125 3.29296875 -6.125 3.1875 C-7.40375 3.125625 -8.6825 3.06375 -10 3 C-6.1865669 0.45771127 -4.5252563 -0.11908569 0 0 Z " fill="#15998A" transform="translate(231,33)"/>
<path d="M0 0 C0.99 0.66 1.98 1.32 3 2 C0.4345406 4.5654594 -1.47686668 4.54046087 -5 5 C-4 2 -4 2 -1.9375 0.8125 C-1.298125 0.544375 -0.65875 0.27625 0 0 Z " fill="#0BB8A6" transform="translate(261,216)"/>
<path d="M0 0 C2.875 -0.1875 2.875 -0.1875 6 0 C6.66 0.99 7.32 1.98 8 3 C5.125 3.1875 5.125 3.1875 2 3 C1.34 2.01 0.68 1.02 0 0 Z " fill="#14B4A4" transform="translate(243,218)"/>
<path d="M0 0 C1.98 1.65 3.96 3.3 6 5 C5.34 5.66 4.68 6.32 4 7 C2.68 6.34 1.36 5.68 0 5 C0 3.35 0 1.7 0 0 Z " fill="#117F71" transform="translate(442,193)"/>
<path d="M0 0 C1.17539996 0.92652701 2.34010577 1.86663387 3.5 2.8125 C4.1496875 3.33457031 4.799375 3.85664063 5.46875 4.39453125 C7 6 7 6 7 9 C3.99234114 6.15063897 1.72154788 3.76488042 0 0 Z " fill="#167368" transform="translate(434,185)"/>
<path d="M0 0 C0.33 0.66 0.66 1.32 1 2 C0 5 0 5 -2.4375 6.75 C-3.7059375 7.36875 -3.7059375 7.36875 -5 8 C-5.66 7.67 -6.32 7.34 -7 7 C-4.69 4.69 -2.38 2.38 0 0 Z " fill="#177A6E" transform="translate(193,57)"/>
<path d="M0 0 C1 2 1 2 0.375 4.0625 C-1 6 -1 6 -3.625 6.75 C-4.800625 6.87375 -4.800625 6.87375 -6 7 C-4.02 4.69 -2.04 2.38 0 0 Z " fill="#1AB1A2" transform="translate(223,302)"/>
<path d="M0 0 C1.32 0 2.64 0 4 0 C4 0.66 4 1.32 4 2 C4.66 2 5.32 2 6 2 C6.33 2.99 6.66 3.98 7 5 C6.01 5 5.02 5 4 5 C1.8125 2.5 1.8125 2.5 0 0 Z " fill="#13796D" transform="translate(303,297)"/>
<path d="M0 0 C0 3 0 3 -2.5 5.6875 C-3.325 6.450625 -4.15 7.21375 -5 8 C-5.66 7.67 -6.32 7.34 -7 7 C-4.69 4.69 -2.38 2.38 0 0 Z " fill="#18776C" transform="translate(65,185)"/>
<path d="M0 0 C1.98 0.99 1.98 0.99 4 2 C4.99 2.33 5.98 2.66 7 3 C6.67 4.32 6.34 5.64 6 7 C4.02 4.69 2.04 2.38 0 0 Z " fill="#1AB3A0" transform="translate(213,187)"/>
<path d="M0 0 C2.31 0 4.62 0 7 0 C4.94766315 2.2477975 3.99332739 3.0022242 1 4 C0.67 2.68 0.34 1.36 0 0 Z " fill="#118D81" transform="translate(329,146)"/>
<path d="M0 0 C0.66 0.99 1.32 1.98 2 3 C-1 5 -1 5 -3.1875 4.625 C-3.785625 4.41875 -4.38375 4.2125 -5 4 C-3.35 2.68 -1.7 1.36 0 0 Z " fill="#0F796E" transform="translate(207,44)"/>
</svg>
