<svg width="846" height="284" viewBox="0 0 846 284" fill="none" xmlns="http://www.w3.org/2000/svg">
<path fill-rule="evenodd" clip-rule="evenodd" d="M722.21 44.8735C744.358 44.8735 783.456 74.0064 783.456 96.1701C783.456 118.339 749.644 167.444 727.491 167.444C705.343 167.444 655.085 129.499 655.085 107.335C655.085 85.1661 700.056 44.8735 722.21 44.8735ZM743.345 0.0318604C799.56 0.0318604 845.128 43.1131 845.128 96.2636C845.128 149.404 799.56 192.49 743.345 192.49C687.136 192.49 641.567 149.404 641.567 96.2636C641.567 43.1131 687.136 0.0318604 743.345 0.0318604Z" fill="url(#paint0_linear_229_12)"/>
<path d="M243.034 254.817C243.034 248.03 238.111 244.171 228.613 241.813C227.611 241.528 222.325 240.1 221.4 239.887C215.901 238.526 213.471 237.815 213.471 235.956C213.471 234.668 215.044 232.383 221.753 232.383C226.614 232.383 231.252 234.315 234.466 237.457L241.892 230.098C236.751 225.097 230.109 222.594 221.686 222.594C208.901 222.594 201.475 228.312 201.475 236.096C201.475 244.311 209.399 247.458 217.116 249.385C218.113 249.598 224.184 251.244 225.186 251.457C230.395 252.745 231.039 253.887 231.039 255.315C231.039 256.956 229.039 259.101 222.185 259.101C217.043 259.101 211.544 256.816 207.758 252.817L200.119 260.529C206.761 266.247 214.187 269.03 222.397 269.03C236.325 269.03 243.034 262.461 243.034 254.817ZM272.842 240.811L273.912 239.669C275.766 235.099 279.266 232.31 285.124 232.31C290.836 232.31 294.476 234.953 296.123 239.669L297.265 240.811H272.842ZM308.903 246.098C308.903 232.954 301.118 222.527 285.124 222.527C269.841 222.527 261.059 232.596 261.059 246.098C261.059 258.888 269.129 268.963 285.768 268.963C293.266 268.963 299.332 266.745 304.691 262.103L297.478 254.817C293.905 257.746 290.265 259.101 285.768 259.101C279.624 259.101 275.48 256.099 273.767 251.53L272.697 250.387H308.617C308.83 248.959 308.903 247.24 308.903 246.098ZM362.557 244.384C362.557 250.958 359.415 255.674 350.706 255.674C342.849 255.674 338.851 251.244 338.851 244.384C338.851 237.669 342.564 232.741 350.706 232.741C358.771 232.741 362.557 237.529 362.557 244.384ZM361.986 223.238V226.312H361.845C359.415 224.095 354.419 222.527 350.062 222.527C334.92 222.527 326.922 232.383 326.922 244.244C326.922 257.029 334.779 265.961 350.135 265.961C354.705 265.961 359.062 264.6 361.845 262.528H361.986V263.816C361.986 269.747 358.132 273.392 350.847 273.392C346.277 273.392 341.494 271.891 337.423 269.103L329.425 277.105C336.067 281.608 342.704 283.607 350.847 283.607C366.057 283.607 373.914 276.176 373.914 263.39V223.238H361.986ZM440.566 223.238H428.638V249.53C428.638 255.461 424.286 258.675 417.785 258.675C410.499 258.675 408.214 255.461 408.214 250.029V223.238H396.291V250.673C396.218 261.744 402.361 268.963 415.998 268.963C420.926 268.963 425.569 267.316 428.498 264.388H428.638V268.319H440.566V223.238ZM491.006 222.74H488.363C482.297 222.74 477.868 225.17 475.297 229.241H475.152V223.238H463.229V268.246H475.152V245.957C475.152 237.529 479.01 233.598 487.438 233.598H491.006V222.74ZM542.661 245.745C542.661 253.456 539.021 258.743 530.665 258.743C522.382 258.743 518.669 253.456 518.669 245.745C518.669 237.955 522.237 232.814 530.665 232.814C539.021 232.814 542.661 238.028 542.661 245.745ZM554.589 245.745C554.589 232.596 546.665 222.527 530.592 222.527C514.671 222.527 506.741 232.669 506.741 245.745C506.741 258.815 514.671 268.963 530.665 268.963C546.519 268.963 554.589 258.743 554.589 245.745ZM615.529 254.817C615.529 248.03 610.601 244.171 601.103 241.813C600.101 241.528 594.82 240.1 593.89 239.887C588.391 238.526 585.966 237.815 585.966 235.956C585.966 234.668 587.534 232.383 594.248 232.383C599.104 232.383 603.746 234.315 606.961 237.457L614.387 230.098C609.246 225.097 602.604 222.594 594.176 222.594C581.396 222.594 573.965 228.312 573.965 236.096C573.965 244.311 581.894 247.458 589.606 249.385C590.608 249.598 596.674 251.244 597.676 251.457C602.89 252.745 603.534 253.887 603.534 255.315C603.534 256.956 601.529 259.101 594.674 259.101C589.533 259.101 584.034 256.816 580.248 252.817L572.609 260.529C579.251 266.247 586.677 269.03 594.892 269.03C608.815 269.03 615.529 262.461 615.529 254.817Z" fill="#010059"/>
<path fill-rule="evenodd" clip-rule="evenodd" d="M475.391 180.681H475.396C482.604 194.043 496.724 203.126 512.967 203.126C529.138 203.126 543.206 194.126 550.445 180.863V180.858L561.662 155.651H561.584L619.658 10.9424C600.527 10.553 581.858 16.6599 565.079 29.1855C550.965 39.7221 541.493 51.1208 535.671 66.9803L514.193 125.469L493.208 66.84C481.01 32.7479 441.013 10.0492 405.503 10.9424L475.391 180.681Z" fill="#010059"/>
<path fill-rule="evenodd" clip-rule="evenodd" d="M303.969 66.9906C326.118 66.9906 344.08 84.9636 344.08 107.127C344.08 129.296 326.118 147.264 303.969 147.264C281.816 147.264 263.859 129.296 263.859 107.127C263.859 84.9636 281.816 66.9906 303.969 66.9906ZM303.969 10.9891C360.179 10.9891 405.747 54.0704 405.747 107.216C405.747 160.361 360.179 203.447 303.969 203.447C247.755 203.447 202.186 160.361 202.186 107.216C202.186 54.0704 247.755 10.9891 303.969 10.9891Z" fill="#010059"/>
<path fill-rule="evenodd" clip-rule="evenodd" d="M183.673 202.497L182.515 81.8477C182.224 51.505 165.788 30.79 139.709 17.1687C130.798 13.1442 120.9 10.88 110.395 10.8956C81.5941 10.9475 60.957 28.1416 53.6453 38.8028C53.4324 23.4575 43.6539 10.9475 23.396 10.9112H0.214355V202.497C40.346 203.146 64.7428 176.028 64.3741 136.909L63.9846 95.4586C63.8548 57.0355 119.342 57.9183 119.488 95.4586L119.529 137.751C119.56 172.404 139.252 202.497 183.673 202.497Z" fill="#010059"/>
<path fill-rule="evenodd" clip-rule="evenodd" d="M714.005 66.9906C736.158 66.9906 754.116 84.9636 754.116 107.127C754.116 129.296 736.158 147.264 714.005 147.264C691.851 147.264 673.894 129.296 673.894 107.127C673.894 84.9636 691.851 66.9906 714.005 66.9906ZM714.005 10.9891C770.219 10.9891 815.788 54.0704 815.788 107.216C815.788 160.361 770.219 203.447 714.005 203.447C657.79 203.447 612.222 160.361 612.222 107.216C612.222 54.0704 657.79 10.9891 714.005 10.9891Z" fill="#010059"/>
<defs>
<linearGradient id="paint0_linear_229_12" x1="656.128" y1="76.0049" x2="904.424" y2="60.4651" gradientUnits="userSpaceOnUse">
<stop stop-color="#F58634"/>
<stop offset="0.34902" stop-color="#F8A732"/>
<stop offset="1" stop-color="#FCC82F"/>
</linearGradient>
</defs>
</svg>
